<svg width="99" height="34" xmlns="http://www.w3.org/2000/svg">

 <g>
  <title>background</title>
  <rect fill="none" id="canvas_background" height="36" width="101" y="-1" x="-1"/>
 </g>
 <g>
  <title>Layer 1</title>
  <path fill="#f20404" id="svg_1" d="m97.63426,27.15574l0.1,-4.7c0,0 -0.3,-1.5 -0.4,-1.9c-0.6,-1.3 -2.6,-4.5 -3.5,-5.3c-6.9,-6.1 -9.2,-6.5 -9.9,-6.6c-0.7,-0.1 -1.7,-0.2 -3.2,-0.1c-1.6,0 -1.8,0.1 -3.8,0.1c-0.8,-0.2 -1.8,-0.2 -2.3,-0.3l-0.6,0l-0.1,0c0,0 0,0 0,0l-17.7,-0.2c0,0 -9.8,0.1 -13.1,0.2c-0.6,0 -3.4,-0.2 -4.6,-0.1c-1.2,0.1 -2.9,-0.2 -2.9,-0.2s-0.5,-6.9 -0.3,-7c0,0 0.9,-0.6 3.1,-0.6c2.2,0 12.5,0.1 16.1,0.7l0,0c-1.4,-0.3 -2,-0.3 -2.4,-0.3c-0.9,-0.1 -7.6,-0.6 -12.3,-0.6c-4.8,0 -8.4,0.5 -10.4,0.9c-2,0.4 -4.6,1.2 -5.8,1.5s-7.5,3 -7.5,3s-8.5,-0.2 -9.5,-0.2c-0.2,-0.3 -1.2,-0.2 -1.2,-0.2l-2.3,0.4c0,0 0.4,0.3 1,0.9c0.6,0.5 1.9,0.2 1.9,0.2l1.5,0l0.1,0.3l-4.2,1.8c0,0 -1.6,0.6 -2.6,4.3s-0.4,8.8 -0.4,9.8c0.1,1.1 0.4,1.4 0.7,1.6c0.1,0.1 0.4,0.2 0.6,0.1c0.2,0.8 0.4,1.6 0.6,2.3l0,0c0,0 0.3,1.2 1.2,2.1c0.4,0.5 0.9,0.8 1.4,0.9c0.5,0.1 1.1,0.2 1.8,0.1c3.7,-0.4 5,-0.6 5,-0.6s1.1,-0.7 1.4,-1.6c9.1,0.7 17.3,1.8 18.2,1.9c0.9,0.1 1.4,0.4 1.8,0.3c0.4,-0.1 0.2,-1 0.2,-1s-0.1,-1 -0.6,-4.5c-0.4,-3.6 -0.4,-9.8 2,-12c2.2,-2.1 4.4,-1.8 5.7,-0.6c-4.1,-0.7 -6,3.9 -6,3.9l0,0c-0.9,1.9 -1.5,4.5 -1.5,7.3c0,5.9 2.4,10.6 5.5,10.8l0,0l0,0c0.1,0 0.1,0 0.2,0c0,0 0.1,0 0.1,0c0.9,0 4,0 5.4,0c1.6,0 2.7,-2.2 2.7,-2.2l0.2,-0.3c5.9,0 19.8,0 22.5,0c1.2,0 5.1,-0.2 9.5,-0.6c1.7,0.6 3,0.4 4.4,0.3c1.2,-0.1 2,-0.6 2.4,-0.8c6.2,-0.5 11.8,-0.9 11.8,-0.9l0.4,-0.2l1,-0.2c0,0 0,-0.2 0,-0.7c-0.7,-0.5 -1.4,-1.2 -1.4,-1.2zm-70.7,-20.3l0.4,1.1l-6.2,-0.5l1.3,-1.7c0,0 0,0.1 0.1,0.4c0,0.1 0,0.2 0,0.2l0.1,0c0,0.1 0.1,0.1 0.2,0.2c0.4,0.4 2.3,0.1 3.1,0.1c0.9,-0.1 1,0.2 1,0.2zm-0.5,-3.6l2.6,-0.3c0,0 0.3,-0.1 0.2,0.3c-0.1,0.4 -0.4,2.6 -0.5,3.8c-0.5,-2.3 -1.1,-3.9 -2.3,-3.8zm-6.7,3.8c0.1,-0.1 0.1,-0.3 0.4,-0.7c0.7,-1 1.5,-1.8 2.2,-2.4c0,0.1 0,0.2 0,0.3c0,0.2 0,0.4 0.1,0.6c-1,1 -1.9,1.9 -2.1,2.1c-0.5,0.7 -0.7,0.3 -0.6,0.1zm-0.5,-0.6c-0.5,0.3 -1.2,0.5 -1.2,0.2c0.1,-0.8 1.6,-1.2 1.6,-1.2c0.6,0 0.1,0.7 -0.4,1zm3.9,-3c1.5,-1.1 2.8,-1.4 2.8,-1.4c-0.4,0.2 -1.1,0.7 -1.8,1.3c-0.2,0 -0.6,0 -1,0.1zm-1.6,0.1c0.3,-0.2 1.4,-0.6 1.4,-0.6c1.4,-0.5 0.1,0.3 -0.7,0.6c-0.9,0.4 -1,0.2 -0.7,0zm-0.7,1.3c-0.7,0.4 -1.1,0.4 -1.1,0.2s1.2,-0.8 1.2,-0.8c1.4,-0.6 0.6,0.2 -0.1,0.6zm-1.6,-0.1c0.3,-0.2 1.2,-0.7 1.2,-0.7c1,-0.4 0,0.3 -0.5,0.6c-0.6,0.2 -0.9,0.2 -0.7,0.1zm-1.1,1.3c-0.6,0.3 -1.1,0.5 -0.7,0.1c0.4,-0.4 1.1,-0.7 1.1,-0.7c1.3,-0.8 0.1,0.2 -0.4,0.6zm-0.8,2.3c0,0 -0.1,0 -0.6,0.2c-1.4,-0.2 -2.5,0 -2.5,0l-0.6,0c0,0 0.5,-0.2 0.9,-0.3c1.4,-0.2 1.5,-0.5 1.5,-0.5s0.4,0 0.5,0.2c0.2,0.2 0.8,0.4 0.8,0.4zm-7.3,-2.2c0.7,0 4.6,-0.2 5.7,-0.3c0.4,-0.4 2.6,-1.3 2.6,-1.3c-1.6,0.7 -3.1,2.4 -3.1,2.4s-3,-0.3 -4.4,-0.4s-1.4,-0.3 -0.8,-0.4zm-8.7,15.9c0,0.1 0,0.1 0,0c-0.4,-2.5 -0.3,-5.8 0,-6.7c1.2,-3.9 2.6,-2.8 3.5,-1.5c-0.1,0 -0.2,0 -0.4,0c-1.8,0.1 -3.2,3.8 -3.1,8.2zm2.8,6c-1.3,0.1 -2.2,-2.7 -2.4,-5.8c-0.2,-3.1 0.8,-6.5 2.1,-6.5c1.3,-0.1 2.3,3.1 2.4,6.2c0.2,3 -0.7,6.1 -2.1,6.1zm2.9,-7.7c0,0 -0.1,-3.7 -1.8,-6.7c-1.7,-3 -3.5,-0.5 -4.2,1.1c0.5,-5 2.9,-5.9 2.9,-5.9l3,-1.2c-3.7,2.4 -4,3.1 -3.2,3.4c4.1,2.4 3.3,9.3 3.3,9.3zm0.6,6.1c-0.1,-0.4 -0.3,-2.5 -0.3,-2.5c0.6,3.1 2.6,2.7 4.2,3.2c-1.7,0 -3.9,-0.1 -3.9,-0.7zm22.3,0.5l-19,-1.5c0,0 0.3,-4.8 0.4,-5.3c0.1,-0.5 1,-0.4 1,-0.4l17.5,0.2c0.1,0 0.3,0 0.3,0.5c0,-0.3 -0.3,-0.4 -0.3,-0.4l-16.1,0c0,0 -0.3,3.8 -0.4,4.4c-0.1,0.6 -0.3,0.5 -0.3,0.5l-1.5,0.2c0,0 17.8,1.5 18.5,1.5c0.4,0 0.5,-0.1 0.7,-0.3c-0.1,0.6 -0.8,0.6 -0.8,0.6zm3.7,-14.5c-1.3,2.2 -1.4,3 -1.8,4.3c-0.4,1.3 -0.5,6.3 -0.5,6.3l-0.2,0c-0.1,0 -0.2,-0.1 -0.2,-0.2c0,-1 0,-4.4 0.4,-6.2c0.4,-2.2 2,-4.5 2.4,-5.2c0,0 0.1,0 0.1,0c-0.2,0.3 -0.2,0.7 -0.2,1zm-4.3,-4.4l0.1,-2.4l0.5,-2.6c0,0 0.2,-0.4 -0.5,-0.4c-0.7,0 -4.7,0.7 -4.7,0.7l2.1,-1.5l0.2,0c0,0 2.9,-0.7 5.4,-0.8c0.7,0 1.9,-0.3 1.9,0.2c0,0.5 0.2,6.2 0.5,7c-1,-0.1 -5.5,-0.2 -5.5,-0.2zm64.6,14.9c0.2,0.3 0.4,0.6 0.5,0.8c-2.2,0.4 -5.3,0.4 -7.1,0.5c0.1,-0.4 0.1,-1 1.2,-1l5.4,-0.3zm0.7,1.8c0.2,0.6 0.2,0.8 0.2,1.1c-2.3,0.2 -5.7,0.4 -7.6,0.5l0.1,-1.2c3.2,0.1 5.5,-0.1 7.3,-0.4zm-15.6,-12.7c0.9,0.1 6.8,0.2 6.8,0.2l3.5,1.8l2.2,0l0.5,0.4c0,0 0.7,0.6 -0.4,0.6s-9.1,0.2 -9.1,0.2l-3.8,-2.8c0,0 -0.6,-0.5 0.3,-0.4zm5.9,9.9c0,0 0.1,0 0,0c0.1,0 0.1,0 0,0c0.1,0 0.1,0 0,0c2.4,-0.5 1.7,5 1.7,5s0,0 0,0c0.1,-0.5 0.4,-5.4 -1.7,-5zm0.7,5c-0.3,0 -0.6,0 -1,0c-1,-4 -0.1,-4.9 0.3,-5c0.6,0.5 1.2,1.8 0.7,5zm-2.7,-1.6c0.4,-0.1 0.4,-0.2 0.4,-0.2c0.1,0.3 -0.1,0.2 -0.4,0.2c-0.9,0.2 -12.5,0.5 -12.5,0.5s12.3,-0.5 12.5,-0.5zm-1.9,-1.8c0,0 2.2,-0.2 2.4,1.4c-0.5,-1.1 -1.1,-1.2 -2.4,-1.4zm1.3,2c0.2,0.7 0,1.3 0,1.3l-12.3,0.5c0.1,-0.4 0.1,-0.9 0.2,-1.2c1.8,-0.1 9.2,-0.4 12.1,-0.6zm1.4,1.7c0.2,0 -0.1,-1.5 -0.1,-1.5l0.3,1.3c0.1,0.4 -0.4,0.4 -0.4,0.4l-9.6,0.6c3.4,-0.3 7.9,-0.6 9.8,-0.8zm-3.2,-3.7c0.4,0.1 0.8,0.4 1.1,0.7c0.1,0.1 0,0.2 -0.1,0.2c0,0 -8,0.4 -11.1,0.5c0,-0.1 0,-0.1 0,-0.1s0.2,-1 1.6,-1c1.1,0 6.6,-0.2 8.5,-0.3zm-29.8,-12.3l5.3,2.6c0.1,0 0.8,0.4 -2.1,0.4c1.9,0 0.2,-1.3 -3.2,-3zm-7.2,-2.3l2.6,0.2c-2.5,0 -1.5,0.5 -1.5,0.5l7.8,4.3c0,0 -7.1,-3.5 -8.5,-4.3s-0.4,-0.7 -0.4,-0.7zm-5.2,22.8c-2.6,0 -4.4,-3.9 -4.4,-8.6s1.5,-8.4 4.1,-8.4c2.6,0 4.4,3.8 4.4,8.5s-1.6,8.5 -4.1,8.5zm-0.3,-21.5c3.7,-0.3 7.7,5.4 8.4,6.2c1.7,2 6.1,1.4 13.3,2.8c-7.2,-0.3 -12.3,-0.4 -14,-2.8c-3.6,-5 -6.8,-6.2 -8.7,-5.8l1,-0.4zm6.2,21c-0.1,-0.1 -0.2,-0.7 0.2,-1.1s0.4,-1.1 0.4,-1.1c0.1,0.2 0,0.7 -0.1,1c-0.1,0.3 -0.5,0.7 -0.4,1c0,0.2 0.6,0.3 0.9,0.3c-0.1,-0.1 -0.5,-0.1 -1,-0.1zm0.8,-1.3c0.3,-0.3 0.3,-0.8 0.3,-1c0,0 0,-0.1 0,-0.1c-0.1,-0.2 -0.5,-0.7 -0.5,-1.2c0,-0.3 0,-4.9 0,-4.9c0.4,0.9 0.3,3.2 0.5,4.6c0.1,0.8 0.6,1.5 1.4,1.7c3.2,0.6 7.5,0.6 7.5,0.6s-9.2,0.7 -9.2,0.3zm14.1,-0.3l-2.6,0l-0.4,-0.5l0.1,-4c0,0 0,-0.8 1.3,-0.8c1.3,0 5.8,0 5.8,0s-5.8,0.2 -5.9,0.5c-0.1,0.3 -0.3,4.1 -0.3,4.1s0.6,0.6 2,0.7zm-1,-14.1c0,0 -1.8,0.1 -4.1,-1l2.4,-0.2c0,0 0.9,0 0,-0.5c-0.9,-0.5 -2.4,-1.4 -2.4,-1.4l9.9,-0.3l7.2,3.2l-13,0.2zm12.1,14.6c0,0 -0.5,-0.1 -0.3,-1.5c0,-0.1 0,-0.2 0,-0.2l14.7,-0.8c0.4,0 0.7,0 0.9,0c0.5,0 1,0 1.4,0c0.1,0 0.1,0 0.1,0l0,0c3.2,-0.2 5.9,-0.4 7.8,-0.7c0,0.5 0.1,0.9 0.1,1.5l-24.7,1.7zm25.3,-7c0,0 -0.4,-0.2 -1.2,-0.2c0,0 1.6,-0.3 1.8,0.8c0,0.1 0,0.1 0,0.2c-0.1,-0.4 -0.3,-0.7 -0.6,-0.8zm1.7,5.2c-0.6,-0.2 -0.9,-1.1 -0.9,-1.3c0,-0.1 0,-0.3 0,-0.7c0,0.4 0.1,0.7 0.1,0.7s0.3,1.1 0.8,1.3c0,0 0.1,0 0.1,0c0,0 -0.1,0 -0.1,0z"/>
 </g>
</svg>