<svg width="95" height="51" xmlns="http://www.w3.org/2000/svg">
 <g>
  <title>background</title>
  <rect x="-1" y="-1" width="40" height="22.4" id="canvas_background" fill="none"/>
 </g>

 <g>
  <title>Layer 1</title>
  <ellipse fill="#000000" cx="82.131" cy="64.836" rx="3.321" ry="3.072" id="svg_1"/>
  <path fill="#000000" d="m24.273,60.936c0,0 0.344,6.692 0.453,7.462c0.107,0.77 1.065,0.883 1.517,0.903c0.749,0.035 3.346,0.133 3.346,0.133l-0.542,-8.498l-4.774,0z" id="svg_2"/>
  <path fill="#0000bf" d="m94.15046,26.871c0.387,-2.5 0.597,-4.512 0.617,-5.031c0.05,-1.27 0.06,-3.655 -0.217,-4.84c-0.164,-0.699 -0.651,-1.606 -1.543,-2.476c-0.893,-0.87 -1.688,-1.383 -3.063,-1.985c3.304,0 2.966,-1.406 2.94,-2.566c-0.024,-1.159 -1.374,-1.271 -1.374,-1.271s-5.713,-0.021 -6.027,0c-0.313,0.023 -1.156,0.447 -1.109,1.785c0.048,1.339 0.58,1.406 0.58,1.406l0,0.378l-0.604,0c-10.392,-10.643 -12.661,-10.722 -12.698,-10.753c-0.035,-0.031 -0.188,-0.086 -0.44,0c-4.197,-1.206 -23.583,-1.518 -23.583,-1.518s-19.383,0.313 -23.58,1.518c-0.252,-0.086 -0.406,-0.031 -0.441,0c-0.038,0.031 -2.306,0.11 -12.698,10.752l-0.606,0l0,-0.378c0,0 0.531,-0.067 0.579,-1.406c0.048,-1.338 -0.794,-1.762 -1.108,-1.785c-0.313,-0.021 -6.028,0 -6.028,0s-1.352,0.112 -1.375,1.271c-0.023,1.16 -0.361,2.566 2.942,2.566c-1.375,0.602 -2.171,1.115 -3.064,1.985c-0.891,0.87 -1.377,1.777 -1.542,2.476c-0.277,1.185 -0.265,3.57 -0.217,4.84c0.021,0.52 0.229,2.531 0.62,5.031c-0.001,0.005 -0.756,7.096 -0.646,11.443c0.11,4.353 0.689,8.568 0.689,8.568s-0.036,3.452 3.763,3.45c3.797,-0.002 3.797,-0.002 3.797,-0.002l4.34,0c0,0 1.592,0.167 1.592,-2.343c0,-0.008 0,-0.016 0,-0.023c0.332,0.014 0.676,0.022 1.037,0.023l31.945,0l31.948,0c0.361,-0.001 0.706,-0.01 1.037,-0.023c0,0.008 0,0.016 0,0.023c0,2.51 1.592,2.343 1.592,2.343l4.341,0c0,0 0,0 3.798,0.002s3.761,-3.448 3.761,-3.448s0.578,-4.216 0.688,-8.568c0.112,-4.348 -0.643,-11.439 -0.643,-11.444zm-70.102,-24.696c0,0 5.788,-0.869 23.58,-0.869c17.795,0 23.583,0.869 23.583,0.869c2.351,0.804 12.459,10.131 11.409,10.144c-1.048,0.01 -5.154,0.531 -5.154,0.531l-29.838,0.301l-29.837,-0.3c0,0 -4.104,-0.521 -5.153,-0.531c-1.049,-0.013 9.06,-9.341 11.41,-10.145zm18.76,11.992l4.82,0l4.823,0c-0.649,0.601 -1.904,0.692 -1.904,0.692l-2.918,0l-2.917,0c-0.001,0 -1.255,-0.091 -1.904,-0.692zm1.205,4.373l0,1.772l-19.531,0l1.736,-5.824l6.764,0c0,0 2.279,0.303 6.546,1.575c4.268,1.272 4.485,2.477 4.485,2.477zm7.231,0c0,0 0.218,-1.205 4.486,-2.477c4.268,-1.271 6.545,-1.575 6.545,-1.575l6.765,0l1.735,5.824l-19.531,0l0,-1.772zm-35.127,24.538c-3.868,-0.169 -6.623,-3.384 -7.944,-9.848c0,0 6.316,0.411 8.57,0.668c1.112,0.127 2.879,0.261 3.039,3.045c0.181,3.146 0.435,6.157 0.435,6.157s-3.222,0.016 -4.1,-0.022zm4.17,-15.805c-0.18,1.439 -1.953,1.338 -1.953,1.338s-3.802,-0.311 -6.725,-0.668c-2.589,-0.318 -3.27,-1.016 -3.728,-1.441c-0.777,-0.718 -3.019,-2.96 -3.019,-2.96s-3.708,-3.865 -0.307,-4.97c4.881,-1.473 15.624,0.136 16.202,0.269c0.578,0.134 0.723,0.469 0.723,0.469l-0.723,3.914c0.001,0 -0.289,2.611 -0.47,4.049zm53.142,14.49c-0.05,1.159 -1.347,1.305 -1.955,1.34c-5.95,0.367 -23.846,0.667 -23.846,0.667s-17.893,-0.3 -23.843,-0.667c-0.607,-0.035 -1.905,-0.181 -1.954,-1.34c-0.048,-1.159 -0.361,-8.077 -0.361,-8.077l0.361,0l25.797,0.179l25.801,-0.179l0.361,0c0,-0.001 -0.314,6.917 -0.361,8.077zm5.713,1.315c-0.879,0.038 -4.098,0.022 -4.098,0.022s0.252,-3.011 0.434,-6.157c0.161,-2.784 1.927,-2.918 3.037,-3.045c2.255,-0.257 8.572,-0.668 8.572,-0.668c-1.322,6.464 -4.077,9.679 -7.945,9.848zm11.254,-19.536c0,0 -2.241,2.242 -3.019,2.96c-0.458,0.426 -1.14,1.123 -3.729,1.441c-2.924,0.357 -6.725,0.668 -6.725,0.668s-1.771,0.102 -1.952,-1.338c-0.181,-1.438 -0.471,-4.05 -0.471,-4.05l-0.724,-3.914c0,0 0.146,-0.335 0.724,-0.469c0.578,-0.133 11.32,-1.741 16.202,-0.269c3.402,1.106 -0.306,4.971 -0.306,4.971z" id="svg_3"/>
  <ellipse fill="#000000" cx="17.52" cy="64.835" rx="3.322" ry="3.073" id="svg_4"/>
  <path fill="#000000" d="m70.06,69.434c0,0 2.599,-0.098 3.348,-0.133c0.453,-0.021 1.41,-0.134 1.519,-0.903s0.451,-7.462 0.451,-7.462l-4.774,0l-0.544,8.498z" id="svg_5"/>
 </g>
</svg>