<svg width="90" height="48" xmlns="http://www.w3.org/2000/svg">

 <g>
  <title>background</title>
  <rect fill="none" id="canvas_background" height="50" width="92" y="-1" x="-1"/>
 </g>
 <g>
  <title>Layer 1</title>
  <path fill="#cece0e" id="svg_1" d="m90.4,13.33859l-1.461,-1.785l-6.49,-0.324l-1.73,3.624c0,0 -9.627,-11.196 -11.034,-11.791c-1.405,-0.595 -9.356,-1.839 -12.655,-1.352c-1.353,-0.108 -21.905,-0.108 -23.258,0c-3.299,-0.487 -11.25,0.757 -12.656,1.352c-1.406,0.595 -11.033,11.791 -11.033,11.791l-1.73,-3.624l-6.493,0.324l-1.46,1.785l1.568,2.434l5.354,0.433l-1.893,1.352c0,0 -0.541,20.986 -0.325,23.365c0.217,2.381 0.325,5.031 2.759,5.031s7.843,0 7.843,0s1.73,0.215 1.784,-3.408l6.437,0l2.326,-0.865l6.544,0.811l25.205,0l6.544,-0.811l2.326,0.865l6.436,0c0.055,3.623 1.785,3.408 1.785,3.408s5.408,0 7.843,0c2.434,0 2.542,-2.65 2.758,-5.031c0.217,-2.379 -0.324,-23.365 -0.324,-23.365l-1.893,-1.352l5.354,-0.433l1.569,-2.434zm-10.709,6.869l0.324,0.703l-2.921,4.597l-7.68,1.514l-3.191,-2.162l13.468,-4.652zm-58.119,-16.226c2.326,-0.649 45.329,-0.649 47.655,0s7.867,9.357 7.867,9.357s-16.117,0.433 -17.632,1.082c-1.244,-0.325 -26.881,-0.325 -28.125,0c-1.515,-0.649 -17.632,-1.082 -17.632,-1.082s5.542,-8.708 7.867,-9.357zm23.828,25.204c-0.703,-0.217 -1.839,-1.244 -1.515,-1.785s2.704,-0.541 3.029,0c0.325,0.541 -0.811,1.568 -1.514,1.785zm-34.291,-8.978l13.468,4.652l-3.191,2.162l-7.68,-1.514l-2.921,-4.597l0.324,-0.703zm68.041,20.283l-11.629,0.377l-10.276,-3.948l-1.623,0.541l5.03,2.434l-30.505,0l5.03,-2.434l-1.622,-0.541l-10.276,3.947l-11.629,-0.376l-1.785,-2.813c0.596,-2.543 4.651,-6.383 4.651,-6.383l18.065,3.732l25.637,0l18.064,-3.732c0,0 4.057,3.84 4.651,6.383l-1.783,2.813z"/>
 </g>
</svg>